<?xml version="1.0" encoding="utf-8"?>
<!-- Generator: Adobe Illustrator 16.0.0, SVG Export Plug-In . SVG Version: 6.00 Build 0)  -->
<!DOCTYPE svg PUBLIC "-//W3C//DTD SVG 1.1//EN" "http://www.w3.org/Graphics/SVG/1.1/DTD/svg11.dtd">
<svg version="1.1" id="Capa_1" xmlns="http://www.w3.org/2000/svg" xmlns:xlink="http://www.w3.org/1999/xlink" x="0px" y="0px"
	 width="233.371px" height="47px" viewBox="0 0 233.371 47" enable-background="new 0 0 233.371 47" xml:space="preserve">
<g>
	<path fill="#FFFFFF" d="M0,23.282v0.356c0.057,7.719,3.854,14.565,9.663,18.815l-7.643-28.52C0.749,16.797,0.025,19.957,0,23.282
		 M37.405,42.456c5.853-4.286,9.665-11.201,9.665-18.997c0-3.391-0.727-6.61-2.024-9.527L37.405,42.456z M12.422,44.197
		c3.312,1.783,7.095,2.797,11.112,2.797s7.8-1.014,11.112-2.797L23.534,2.733L12.422,44.197z M21.988-0.024
		C14.083,0.492,7.229,4.926,3.359,11.354L11.276,40.9L22.244-0.024H21.988z M24.827-0.024L35.792,40.9l7.916-29.547
		C39.838,4.926,32.984,0.492,25.081-0.024H24.827z"/>
	<g>
		<polygon fill="#FFFFFF" points="75.971,22.177 75.586,22.227 70.032,8.337 64.574,22.227 64.19,22.177 59.352,4.34 61.293,4.34 
			64.765,17.268 69.96,4.194 70.201,4.194 75.419,17.197 78.869,4.34 80.809,4.34 		"/>
		<g>
			<path fill="#FFFFFF" d="M92.835,22.177c-4.026,0-6.587-2.368-6.587-6.582V4.34h1.915v11.108c0,3.521,1.916,5.008,4.672,5.008
				c2.728,0,4.716-1.512,4.716-5.008V4.34h1.916v11.254C99.468,19.666,96.761,22.177,92.835,22.177"/>
			<polygon fill="#FFFFFF" points="118.791,22.227 107.392,8.576 107.392,21.889 105.477,21.889 105.477,4.099 105.859,4.005 
				117.113,17.438 117.113,4.34 119.032,4.34 119.032,22.155 			"/>
			<path fill="#FFFFFF" d="M129.998,5.848c-1.055,0-2.206,0.072-2.826,0.19v14.151c0.744,0.146,1.677,0.194,3.064,0.194
				c5.172,0,7.545-3.258,7.545-7.425C137.781,8.888,135.097,5.848,129.998,5.848 M129.998,22.036c-1.772,0-3.376-0.146-4.743-0.289
				V4.506c1.343-0.166,2.802-0.287,4.572-0.287c6.591,0,10.034,4.239,10.034,8.739C139.861,17.677,136.583,22.036,129.998,22.036"/>
			<polygon fill="#FFFFFF" points="145.489,21.889 145.489,4.34 155.764,4.34 155.764,6.061 147.405,6.061 147.405,12.123 
				154.925,12.123 154.925,13.846 147.405,13.846 147.405,20.168 155.764,20.168 155.764,21.889 			"/>
			<path fill="#FFFFFF" d="M165.99,5.943c-0.817,0-1.798,0.048-2.422,0.19v7.137c0.577,0.072,1.462,0.121,2.131,0.121
				c3.281,0,4.697-1.511,4.697-3.784C170.396,7.546,168.861,5.943,165.99,5.943 M171.399,21.889l-4.67-6.918
				c-0.38,0.024-0.763,0.048-1.173,0.048c-0.576,0-1.411-0.024-1.988-0.048v6.918h-1.915V4.506c1.295-0.166,2.587-0.289,4.046-0.289
				c4.526,0,6.753,2.251,6.753,5.271c0,2.442-1.365,4.286-3.828,5.077l5.098,7.324H171.399z"/>
			<polygon fill="#FFFFFF" points="193.19,21.889 192.93,9.488 186.7,20.096 186.438,20.096 180.163,9.465 179.951,21.889 
				178.01,21.889 178.681,4.052 179.039,4.005 186.654,17.221 194.078,4.005 194.459,4.052 195.13,21.889 			"/>
			<path fill="#FFFFFF" d="M207.317,7.883l-3.231,7.544h6.464L207.317,7.883z M213.329,21.889l-2.084-4.861h-7.854l-2.083,4.861
				h-1.989l7.88-17.861h0.313l7.879,17.861H213.329z"/>
			<polygon fill="#FFFFFF" points="233.132,22.227 221.735,8.576 221.735,21.889 219.818,21.889 219.818,4.099 220.2,4.005 
				231.456,17.438 231.456,4.34 233.371,4.34 233.371,22.155 			"/>
		</g>
	</g>
	<path fill="#FFFFFF" d="M69.523,37.589c-0.46,0-1.066-0.037-1.524-0.075v4.764H66.53v-13.35c0.99-0.129,1.983-0.221,3.087-0.221
		c3.476,0,5.183,1.986,5.183,4.285C74.8,35.691,72.834,37.589,69.523,37.589z M69.838,30.029c-0.626,0-1.361,0.038-1.839,0.148v6.01
		c0.458,0.059,1.105,0.111,1.618,0.111c2.52,0,3.601-1.451,3.601-3.196C73.218,31.522,72.063,30.029,69.838,30.029z"/>
	<path fill="#FFFFFF" d="M94.051,42.277v-6.179h-7.205v6.179h-1.474V28.799h1.474v5.977h7.205v-5.977h1.472v13.479H94.051z"/>
	<path fill="#FFFFFF" d="M117.158,42.277l-1.6-3.734h-6.033l-1.598,3.734h-1.525l6.047-13.715h0.238l6.048,13.715H117.158z
		 M112.541,31.522l-2.482,5.789h4.965L112.541,31.522z"/>
	<path fill="#FFFFFF" d="M139.169,42.534l-8.748-10.482v10.226h-1.476V28.615l0.295-0.073l8.642,10.313V28.799h1.472v13.68
		L139.169,42.534z"/>
	<path fill="#FFFFFF" d="M154.547,30.122v12.155h-1.473V30.122h-4.504v-1.323h10.464v1.323H154.547z"/>
	<path fill="#FFFFFF" d="M177.77,42.277l-1.598-3.734h-6.029l-1.601,3.734h-1.527l6.05-13.715h0.238l6.048,13.715H177.77z
		 M173.156,31.522l-2.483,5.789h4.965L173.156,31.522z"/>
	<path fill="#FFFFFF" d="M193.166,42.496c-1.528,0-2.725-0.479-3.899-1.25l0.715-1.287c1.033,0.733,2.207,1.195,3.257,1.195
		c1.724,0,2.537-1.139,2.537-2.353c0-1.177-0.462-1.876-2.667-2.851c-2.334-1.029-3.198-2.077-3.198-3.694
		c0-1.948,1.651-3.678,4.115-3.678c1.142,0,2.228,0.386,3.001,0.917l-0.663,1.251c-0.664-0.476-1.545-0.828-2.428-0.828
		c-1.688,0-2.555,1.032-2.555,2.263c0,0.938,0.645,1.692,2.299,2.445c2.812,1.271,3.602,2.209,3.602,4.012
		C197.281,40.822,195.5,42.496,193.166,42.496z"/>
	<path fill="#FFFFFF" d="M207.578,42.277V28.799h1.471v13.479H207.578z"/>
	<path fill="#FFFFFF" d="M228.745,42.277l-1.598-3.734h-6.03l-1.6,3.734h-1.526l6.047-13.715h0.241l6.047,13.715H228.745z
		 M224.131,31.522l-2.48,5.789h4.964L224.131,31.522z"/>
</g>
</svg>
